<svg width="43" height="24" viewBox="0 0 43 24" fill="none" xmlns="http://www.w3.org/2000/svg">
<rect width="42.4615" height="24" fill="#006FCF"/>
<path d="M34.1235 10.5282H36.6699V4.61548H33.8989V5.43876L33.3746 4.61548H30.9781V5.6633L30.5287 4.61548H26.1101C25.9603 4.61548 25.8106 4.69032 25.6608 4.69032C25.511 4.69032 25.4361 4.76517 25.2863 4.84001C25.1365 4.91485 25.0616 4.91485 24.9119 4.9897V4.61548H12.2552L11.8807 5.58845L11.5062 4.61548H8.51058V5.6633L8.06123 4.61548H5.66469L4.61621 7.16018V10.5282H6.33872L6.63829 9.70488H7.23742L7.53699 10.5282H20.7179V9.77972L21.2422 10.5282H24.9119V10.0791C24.9868 10.1539 25.1365 10.1539 25.2114 10.2288C25.2863 10.3036 25.4361 10.3036 25.511 10.3785C25.6608 10.4533 25.8106 10.4533 25.9603 10.4533H28.6564L28.956 9.63003H29.5551L29.8547 10.4533H33.5244V9.70488L34.1235 10.5282ZM38.2426 18.0126V12.4741H17.6474L17.1231 13.2225L16.5989 12.4741H10.6075V18.3868H16.5989L17.1231 17.6383L17.6474 18.3868H21.392V17.1144H21.2422C21.7664 17.1144 22.2158 17.0396 22.5902 16.8899V18.4616H25.2863V17.7132L25.8106 18.4616H36.9694C37.4188 18.3119 37.8681 18.2371 38.2426 18.0126Z" fill="white"/>
<path d="M36.9682 16.6459H34.9461V17.4721H36.8933C37.7171 17.4721 38.2414 16.9463 38.2414 16.1952C38.2414 15.444 37.792 15.0685 37.0431 15.0685H36.1444C35.9197 15.0685 35.7699 14.9182 35.7699 14.6929C35.7699 14.4675 35.9197 14.3173 36.1444 14.3173H37.8669L38.2414 13.4911H36.2193C35.3955 13.4911 34.8712 14.0169 34.8712 14.6929C34.8712 15.444 35.3206 15.8196 36.0695 15.8196H36.9682C37.1929 15.8196 37.3427 15.9698 37.3427 16.1952C37.4176 16.4956 37.2678 16.6459 36.9682 16.6459ZM33.2985 16.6459H31.2764V17.4721H33.2236C34.0474 17.4721 34.5717 16.9463 34.5717 16.1952C34.5717 15.444 34.1223 15.0685 33.3734 15.0685H32.4747C32.25 15.0685 32.1002 14.9182 32.1002 14.6929C32.1002 14.4675 32.25 14.3173 32.4747 14.3173H34.1972L34.5717 13.4911H32.5496C31.7258 13.4911 31.2015 14.0169 31.2015 14.6929C31.2015 15.444 31.6509 15.8196 32.3998 15.8196H33.2985C33.5232 15.8196 33.673 15.9698 33.673 16.1952C33.7479 16.4956 33.5232 16.6459 33.2985 16.6459ZM30.6773 14.2422V13.4159H27.5319V17.397H30.6773V16.5708H28.4305V15.7445H30.6024V14.9182H28.4305V14.1671H30.6773V14.2422ZM25.5847 14.2422C25.9591 14.2422 26.1089 14.4675 26.1089 14.6929C26.1089 14.9182 25.9591 15.1436 25.5847 15.1436H24.4613V14.1671L25.5847 14.2422ZM24.4613 15.9698H24.9106L26.1089 17.397H27.2323L25.8842 15.8947C26.5583 15.7445 26.9327 15.2938 26.9327 14.6929C26.9327 13.9417 26.4085 13.4159 25.5847 13.4159H23.4877V17.397H24.3864L24.4613 15.9698ZM22.0648 14.768C22.0648 15.0685 21.915 15.2938 21.5405 15.2938H20.3422V14.2422H21.4656C21.8401 14.2422 22.0648 14.4675 22.0648 14.768ZM19.4435 13.4159V17.397H20.3422V16.045H21.5405C22.3643 16.045 22.9635 15.5192 22.9635 14.6929C22.9635 13.9417 22.4392 13.3408 21.6154 13.3408L19.4435 13.4159ZM18.0955 17.397H19.2189L17.6461 15.3689L19.2189 13.4159H18.0955L17.1219 14.6929L16.1483 13.4159H15.0249L16.5977 15.3689L15.0249 17.3219H16.1483L17.1219 16.045L18.0955 17.397ZM14.7254 14.2422V13.4159H11.5799V17.397H14.7254V16.5708H12.4786V15.7445H14.6505V14.9182H12.4786V14.1671H14.7254V14.2422ZM32.9241 7.18141L34.4968 9.58509H35.6202V5.604H34.7215V8.23302L34.4968 7.85745L33.0738 5.604H31.8756V9.58509H32.7743V6.88095L32.9241 7.18141ZM29.0297 7.1063L29.3293 6.28004L29.6288 7.1063L30.0033 8.00768H28.6552L29.0297 7.1063ZM30.6024 9.58509H31.576L29.8535 5.604H28.6552L26.9327 9.58509H27.9063L28.2808 8.75882H30.228L30.6024 9.58509ZM26.4085 9.58509L26.7829 8.75882H26.5583C25.8842 8.75882 25.5098 8.30814 25.5098 7.6321V7.55699C25.5098 6.88095 25.8842 6.43027 26.5583 6.43027H27.5319V5.604H26.4834C25.2851 5.604 24.6111 6.43027 24.6111 7.55699V7.6321C24.6111 8.83394 25.2851 9.58509 26.4085 9.58509ZM23.0383 9.58509H23.937V5.67912H23.0383V9.58509ZM21.0912 6.43027C21.4656 6.43027 21.6154 6.65561 21.6154 6.88095C21.6154 7.1063 21.4656 7.33164 21.0912 7.33164H19.9678V6.35515L21.0912 6.43027ZM19.9678 8.15791H20.4171L21.6154 9.58509H22.7388L21.3907 8.08279C22.0648 7.93256 22.4392 7.48187 22.4392 6.88095C22.4392 6.12981 21.915 5.604 21.0912 5.604H18.9942V9.58509H19.8929L19.9678 8.15791ZM18.3202 6.43027V5.604H15.1747V9.58509H18.3202V8.75882H16.0734V7.93256H18.2453V7.1063H16.0734V6.35515H18.3202V6.43027ZM11.505 9.58509H12.3288L13.4522 6.35515V9.58509H14.3509V5.604H12.8531L11.9544 8.30813L11.0557 5.604H9.55784V9.58509H10.4565V6.35515L11.505 9.58509ZM6.63707 7.1063L6.93663 6.28004L7.2362 7.1063L7.61066 8.00768H6.26261L6.63707 7.1063ZM8.20979 9.58509H9.18338L7.46087 5.604H6.3375L4.61499 9.58509H5.58858L5.96304 8.75882H7.91022L8.20979 9.58509Z" fill="#006FCF"/>
</svg>
