<svg width="43" height="24" viewBox="0 0 43 24" fill="none" xmlns="http://www.w3.org/2000/svg">
<rect width="42.4615" height="24" fill="white"/>
<path d="M27.6943 7.38525H25.0611C24.9062 7.38525 24.7513 7.54015 24.6738 7.69504L23.5896 14.5103C23.5896 14.6652 23.667 14.7427 23.8219 14.7427H25.216C25.3709 14.7427 25.4483 14.6652 25.4483 14.5103L25.7581 12.5742C25.7581 12.4193 25.913 12.2644 26.1453 12.2644H26.9972C28.7785 12.2644 29.7853 11.4125 30.0176 9.70864C30.1725 9.01163 30.0176 8.39206 29.7079 8.00483C29.2432 7.61759 28.5462 7.38525 27.6943 7.38525ZM28.004 9.94098C27.8491 10.8703 27.1521 10.8703 26.4551 10.8703H25.9904L26.3002 9.08907C26.3002 9.01163 26.3777 8.93418 26.5326 8.93418H26.6875C27.1521 8.93418 27.6168 8.93418 27.8491 9.24397C28.004 9.32141 28.004 9.55375 28.004 9.94098Z" fill="#139AD6"/>
<path d="M8.72014 7.38501H6.08696C5.93207 7.38501 5.77717 7.5399 5.69973 7.69479L4.61548 14.5101C4.61548 14.665 4.69293 14.7424 4.84782 14.7424H6.08696C6.24185 14.7424 6.39674 14.5875 6.47419 14.4326L6.78398 12.5739C6.78398 12.419 6.93887 12.2641 7.17121 12.2641H8.02312C9.80438 12.2641 10.8112 11.4122 11.0435 9.7084C11.1984 9.01138 11.0435 8.39181 10.7337 8.00458C10.2691 7.61735 9.64949 7.38501 8.72014 7.38501ZM9.02992 9.94074C8.87503 10.8701 8.17801 10.8701 7.48099 10.8701H7.09376L7.40355 9.08883C7.40355 9.01138 7.48099 8.93394 7.63589 8.93394H7.79078C8.25546 8.93394 8.72014 8.93394 8.95248 9.24372C9.02992 9.32117 9.10737 9.55351 9.02992 9.94074Z" fill="#263B80"/>
<path d="M16.6965 9.86315H15.4573C15.3799 9.86315 15.225 9.94059 15.225 10.018L15.1475 10.4053L15.0701 10.2504C14.7603 9.86315 14.2182 9.70825 13.5986 9.70825C12.2046 9.70825 10.9654 10.7925 10.7331 12.264C10.5782 13.0384 10.8105 13.7355 11.1978 14.2001C11.585 14.6648 12.1271 14.8197 12.8241 14.8197C13.9858 14.8197 14.6054 14.1227 14.6054 14.1227L14.528 14.5099C14.528 14.6648 14.6054 14.7423 14.7603 14.7423H15.922C16.0769 14.7423 16.2318 14.5874 16.3092 14.4325L17.0062 10.0955C16.9288 10.018 16.7739 9.86315 16.6965 9.86315ZM14.9152 12.3414C14.7603 13.0384 14.2182 13.5806 13.4437 13.5806C13.0565 13.5806 12.7467 13.4257 12.5918 13.2708C12.4369 13.0384 12.3595 12.7287 12.3595 12.3414C12.4369 11.6444 13.0565 11.1023 13.7535 11.1023C14.1407 11.1023 14.3731 11.2572 14.6054 11.4121C14.8377 11.6444 14.9152 12.0316 14.9152 12.3414Z" fill="#263B80"/>
<path d="M35.5939 9.86363H34.3548C34.2773 9.86363 34.1224 9.94108 34.1224 10.0185L34.045 10.4058L33.9675 10.2509C33.6578 9.86363 33.1156 9.70874 32.4961 9.70874C31.102 9.70874 29.8629 10.793 29.6305 12.2645C29.4757 13.0389 29.708 13.736 30.0952 14.2006C30.4825 14.6653 31.0246 14.8202 31.7216 14.8202C32.8833 14.8202 33.5029 14.1232 33.5029 14.1232L33.4254 14.5104C33.4254 14.6653 33.5029 14.7428 33.6578 14.7428H34.8195C34.9743 14.7428 35.1292 14.5879 35.2067 14.433L35.9037 10.096C35.8263 10.0185 35.7488 9.86363 35.5939 9.86363ZM33.8127 12.3419C33.6578 13.0389 33.1156 13.5811 32.3412 13.5811C31.9539 13.5811 31.6442 13.4262 31.4893 13.2713C31.3344 13.0389 31.2569 12.7291 31.2569 12.3419C31.3344 11.6449 31.9539 11.1028 32.651 11.1028C33.0382 11.1028 33.2705 11.2577 33.5029 11.4126C33.8127 11.6449 33.8901 12.0321 33.8127 12.3419Z" fill="#139AD6"/>
<path d="M23.4341 9.86377H22.1175C21.9626 9.86377 21.8851 9.94122 21.8077 10.0187L20.1039 12.6518L19.3294 10.1736C19.252 10.0187 19.1745 9.94122 18.9422 9.94122H17.703C17.5481 9.94122 17.4707 10.0961 17.4707 10.251L18.8647 14.3557L17.5481 16.2144C17.4707 16.3693 17.5481 16.6016 17.703 16.6016H18.9422C19.0971 16.6016 19.1745 16.5242 19.252 16.4467L23.5115 10.3284C23.7439 10.0961 23.589 9.86377 23.4341 9.86377Z" fill="#263B80"/>
<path d="M37.0647 7.6174L35.9805 14.5876C35.9805 14.7425 36.0579 14.8199 36.2128 14.8199H37.2971C37.4519 14.8199 37.6068 14.665 37.6843 14.5101L38.7685 7.69485C38.7685 7.53996 38.6911 7.46251 38.5362 7.46251H37.2971C37.2196 7.38507 37.1422 7.46251 37.0647 7.6174Z" fill="#139AD6"/>
</svg>
