<svg width="43" height="24" viewBox="0 0 43 24" fill="none" xmlns="http://www.w3.org/2000/svg">
<rect width="42.4615" height="24" fill="white"/>
<path d="M24.4563 18.5341H17.1877V5.47119H24.4563V18.5341Z" fill="#6C6BBD"/>
<path d="M17.6528 12.0016C17.6528 9.35177 18.8935 6.99135 20.8255 5.4702C19.4127 4.35786 17.6295 3.69394 15.6916 3.69394C11.1039 3.69394 7.38501 7.41336 7.38501 12.0016C7.38501 16.5899 11.1039 20.3093 15.6916 20.3093C17.6295 20.3093 19.4127 19.6454 20.8255 18.5331C18.8935 17.0119 17.6528 14.6515 17.6528 12.0016Z" fill="#EB001B"/>
<path d="M34.2584 12.0016C34.2584 16.5899 30.5395 20.3093 25.9518 20.3093C24.0139 20.3093 22.2308 19.6454 20.8174 18.5331C22.75 17.0119 23.9907 14.6515 23.9907 12.0016C23.9907 9.35177 22.75 6.99135 20.8174 5.4702C22.2308 4.35786 24.0139 3.69394 25.9518 3.69394C30.5395 3.69394 34.2584 7.41336 34.2584 12.0016Z" fill="#0099DF"/>
</svg>
