<svg width="43" height="24" viewBox="0 0 43 24" fill="none" xmlns="http://www.w3.org/2000/svg">
<rect width="42.4615" height="24" fill="#0074C8"/>
<path d="M10.4367 8.30811H8.80786C8.80786 9.64478 8.1943 10.8646 7.12788 11.6681L6.48511 12.1501L8.98316 15.5539H11.0357L8.73482 12.4204C9.82315 11.3394 10.4367 9.87852 10.4367 8.30811Z" fill="white"/>
<path d="M6.28085 8.30811H4.61548V15.5539H6.28085V8.30811Z" fill="white"/>
<path d="M13.088 8.30811H11.5176V15.5539H13.088V8.30811Z" fill="white"/>
<path d="M26.8643 10.4041C26.2653 10.4041 25.6956 10.5867 25.3158 11.1053V10.5428H23.8257V15.5536H25.3377V12.924C25.3377 12.1644 25.849 11.7919 26.4625 11.7919C27.1199 11.7919 27.4997 12.1863 27.4997 12.9167V15.5609H28.9971V12.3689C28.9971 11.2002 28.0695 10.4041 26.8643 10.4041Z" fill="white"/>
<path d="M17.8359 10.5428V10.8642C17.4122 10.5721 16.9009 10.4041 16.3458 10.4041C14.8849 10.4041 13.7017 11.5873 13.7017 13.0482C13.7017 14.509 14.8849 15.6923 16.3458 15.6923C16.9009 15.6923 17.4122 15.5243 17.8359 15.2322V15.5536H19.3332V10.5428H17.8359ZM16.47 14.3337C15.7176 14.3337 15.1114 13.7567 15.1114 13.0482C15.1114 12.3397 15.7176 11.7626 16.47 11.7626C17.2223 11.7626 17.8286 12.3397 17.8286 13.0482C17.8286 13.7567 17.2223 14.3337 16.47 14.3337Z" fill="white"/>
<path d="M21.6565 11.1933V10.5432H20.1226V15.5539H21.6638V13.2166C21.6638 12.4277 22.5184 12.0041 23.11 12.0041C23.1173 12.0041 23.1246 12.0041 23.1246 12.0041V10.5432C22.5184 10.5432 21.9559 10.8062 21.6565 11.1933Z" fill="white"/>
<path d="M33.6567 10.5428V10.8642C33.233 10.5721 32.7217 10.4041 32.1666 10.4041C30.7058 10.4041 29.5225 11.5873 29.5225 13.0482C29.5225 14.509 30.7058 15.6923 32.1666 15.6923C32.7217 15.6923 33.233 15.5243 33.6567 15.2322V15.5536H35.154V10.5428H33.6567ZM32.2908 14.3337C31.5384 14.3337 30.9322 13.7567 30.9322 13.0482C30.9322 12.3397 31.5384 11.7626 32.2908 11.7626C33.0431 11.7626 33.6494 12.3397 33.6494 13.0482C33.6567 13.7567 33.0431 14.3337 32.2908 14.3337Z" fill="white"/>
<path d="M36.3149 10.6894C36.3149 10.6163 36.2638 10.5725 36.1835 10.5725H36.0447V10.9523H36.1104V10.8136H36.1835L36.2419 10.9523H36.3149L36.2492 10.7989C36.293 10.777 36.3149 10.7405 36.3149 10.6894ZM36.1835 10.7478H36.1104V10.6309H36.1835C36.2273 10.6309 36.2492 10.6529 36.2492 10.6894C36.2492 10.7259 36.2346 10.7478 36.1835 10.7478Z" fill="white"/>
<path d="M36.1621 10.4116C35.9649 10.4116 35.8042 10.5723 35.8042 10.7695C35.8115 10.9667 35.9649 11.1274 36.1621 11.1274C36.3593 11.1274 36.52 10.9667 36.52 10.7695C36.52 10.5723 36.3593 10.4116 36.1621 10.4116ZM36.1621 11.0617C36.0014 11.0617 35.8772 10.9302 35.8772 10.7695C35.8772 10.6088 36.0087 10.4774 36.1621 10.4774C36.3228 10.4774 36.447 10.6088 36.447 10.7695C36.447 10.9302 36.3155 11.0617 36.1621 11.0617Z" fill="white"/>
<path d="M36.754 13.7791C36.2354 13.7791 35.8118 14.2027 35.8118 14.7213C35.8118 15.2399 36.2354 15.6636 36.754 15.6636C37.2726 15.6636 37.6963 15.2399 37.6963 14.7213C37.6963 14.1954 37.2726 13.7791 36.754 13.7791Z" fill="white"/>
</svg>
