<svg width="21" height="15" viewBox="0 0 21 15" fill="none" xmlns="http://www.w3.org/2000/svg">
<path d="M19.6866 2.48494C19.4611 1.63011 18.7966 0.956869 17.9528 0.728395C16.4234 0.313232 10.2909 0.313232 10.2909 0.313232C10.2909 0.313232 4.15836 0.313232 2.62897 0.728395C1.78522 0.956905 1.12069 1.63011 0.895144 2.48494C0.485352 4.03437 0.485352 7.26712 0.485352 7.26712C0.485352 7.26712 0.485352 10.4999 0.895144 12.0493C1.12069 12.9041 1.78522 13.5493 2.62897 13.7778C4.15836 14.193 10.2909 14.193 10.2909 14.193C10.2909 14.193 16.4234 14.193 17.9528 13.7778C18.7966 13.5493 19.4611 12.9041 19.6866 12.0493C20.0964 10.4999 20.0964 7.26712 20.0964 7.26712C20.0964 7.26712 20.0964 4.03437 19.6866 2.48494ZM8.28519 10.2022V4.33203L13.4108 7.26719L8.28519 10.2022Z" fill="#CDCDCD"/>
</svg>
