<svg width="20" height="16" viewBox="0 0 20 16" fill="none" xmlns="http://www.w3.org/2000/svg">
<path d="M17.477 4.4839C17.4888 4.64829 17.4888 4.81271 17.4888 4.9771C17.4888 9.99115 13.6725 15.7685 6.69736 15.7685C4.54846 15.7685 2.55224 15.1461 0.873047 14.0659C1.17836 14.1011 1.4719 14.1128 1.78896 14.1128C3.56206 14.1128 5.19431 13.514 6.49774 12.4924C4.83029 12.4571 3.43292 11.3651 2.95146 9.86201C3.18634 9.89721 3.42117 9.92071 3.66779 9.92071C4.00831 9.92071 4.34887 9.87372 4.6659 9.79156C2.92801 9.43925 1.62454 7.91274 1.62454 6.06916V6.0222C2.12945 6.30403 2.71663 6.48016 3.33894 6.50362C2.31733 5.82254 1.64803 4.66004 1.64803 3.34486C1.64803 2.64032 1.83588 1.99448 2.16469 1.43083C4.03177 3.73237 6.83826 5.23539 9.98524 5.39982C9.92654 5.118 9.89129 4.82446 9.89129 4.53089C9.89129 2.44069 11.5822 0.738037 13.6841 0.738037C14.7762 0.738037 15.7626 1.196 16.4554 1.93578C17.3126 1.77139 18.1346 1.45433 18.8626 1.01986C18.5808 1.90057 17.9819 2.64036 17.1952 3.11003C17.9585 3.02787 18.6982 2.81645 19.3793 2.52292C18.8627 3.27441 18.2168 3.94371 17.477 4.4839Z" fill="#CDCDCD"/>
</svg>
