<svg width="17" height="17" viewBox="0 0 17 17" fill="none" xmlns="http://www.w3.org/2000/svg">
<path d="M8.78763 4.09629C6.46948 4.09629 4.59965 5.95054 4.59965 8.24937C4.59965 10.5482 6.46948 12.4024 8.78763 12.4024C11.1058 12.4024 12.9756 10.5482 12.9756 8.24937C12.9756 5.95054 11.1058 4.09629 8.78763 4.09629ZM8.78763 10.9494C7.28958 10.9494 6.0649 9.73855 6.0649 8.24937C6.0649 6.76019 7.28593 5.54933 8.78763 5.54933C10.2893 5.54933 11.5104 6.76019 11.5104 8.24937C11.5104 9.73855 10.2857 10.9494 8.78763 10.9494ZM14.1237 3.92641C14.1237 4.46497 13.6864 4.8951 13.1469 4.8951C12.6038 4.8951 12.1701 4.46136 12.1701 3.92641C12.1701 3.39146 12.6075 2.95772 13.1469 2.95772C13.6864 2.95772 14.1237 3.39146 14.1237 3.92641ZM16.8975 4.90956C16.8355 3.61195 16.5367 2.46253 15.5781 1.51553C14.6231 0.568526 13.464 0.272136 12.1555 0.207075C10.8069 0.13117 6.76471 0.13117 5.41611 0.207075C4.11124 0.268522 2.95216 0.564912 1.99356 1.51191C1.03495 2.45892 0.739714 3.60833 0.674106 4.90594C0.597564 6.24331 0.597564 10.2518 0.674106 11.5892C0.736069 12.8868 1.03495 14.0362 1.99356 14.9832C2.95216 15.9302 4.10759 16.2266 5.41611 16.2917C6.76471 16.3676 10.8069 16.3676 12.1555 16.2917C13.464 16.2302 14.6231 15.9338 15.5781 14.9832C16.533 14.0362 16.8319 12.8868 16.8975 11.5892C16.974 10.2518 16.974 6.24693 16.8975 4.90956ZM15.1552 13.0241C14.8709 13.7326 14.3206 14.2784 13.6025 14.5639C12.5273 14.9868 9.97586 14.8892 8.78763 14.8892C7.59939 14.8892 5.04433 14.9832 3.97273 14.5639C3.25833 14.282 2.70795 13.7362 2.42001 13.0241C1.99356 11.9579 2.09197 9.4277 2.09197 8.24937C2.09197 7.07104 1.9972 4.53726 2.42001 3.4746C2.70431 2.76615 3.25469 2.22036 3.97273 1.93481C5.04797 1.51191 7.59939 1.60951 8.78763 1.60951C9.97586 1.60951 12.5309 1.51553 13.6025 1.93481C14.3169 2.21674 14.8673 2.76254 15.1552 3.4746C15.5817 4.54088 15.4833 7.07104 15.4833 8.24937C15.4833 9.4277 15.5817 11.9615 15.1552 13.0241Z" fill="#CDCDCD"/>
</svg>
