<svg width="19" height="15" viewBox="0 0 19 15" fill="none" xmlns="http://www.w3.org/2000/svg">
<path d="M2.77424 3.1434C2.79593 2.93014 2.71279 2.71688 2.55376 2.5723L0.92361 0.606008V0.313232H5.99116L9.90929 8.90493L13.3539 0.313232H18.1865V0.606008L16.7913 1.94338C16.672 2.03374 16.6106 2.18555 16.6359 2.33375V12.1652C16.6106 12.3134 16.672 12.4652 16.7913 12.5556L18.154 13.893V14.1857H11.2973V13.893L12.7105 12.5231C12.8479 12.3857 12.8479 12.3423 12.8479 12.1327V4.18799L8.91891 14.1604H8.38758L3.81884 4.18799V10.8712C3.77908 11.1532 3.87305 11.4351 4.07185 11.6375L5.90802 13.864V14.1568H0.703125V13.8677L2.5393 11.6375C2.73448 11.4351 2.82484 11.1495 2.77424 10.8712V3.1434Z" fill="#CDCDCD"/>
</svg>
