<svg width="12" height="12" viewBox="0 0 12 12" fill="none" xmlns="http://www.w3.org/2000/svg">
<g clip-path="url(#clip0_938_152)">
<path d="M6.28335 0.466568L7.80976 4.07932L11.7176 4.41503C11.9886 4.43844 12.0989 4.77661 11.8931 4.95463L8.929 7.52267L9.81725 11.343C9.87885 11.6085 9.59118 11.8173 9.35834 11.6763L5.99999 9.6509L2.64164 11.6763C2.40819 11.8167 2.12114 11.6079 2.18274 11.343L3.07099 7.52267L0.106251 4.95402C-0.0994883 4.776 0.010157 4.43782 0.281806 4.41441L4.18961 4.0787L5.71602 0.466568C5.82197 0.215246 6.1774 0.215246 6.28335 0.466568Z" fill="#F8B86D"/>
</g>
<defs>
<clipPath id="clip0_938_152">
<rect width="12" height="12" fill="white" transform="matrix(1 0 0 -1 0 12)"/>
</clipPath>
</defs>
</svg>
