<svg width="13" height="9" viewBox="0 0 13 9" fill="none" xmlns="http://www.w3.org/2000/svg">
<path d="M12.8229 4.06999L8.95436 0.178091C8.71833 -0.0593636 8.33553 -0.0593636 8.0995 0.178091C7.86342 0.415594 7.86342 0.8006 8.0995 1.0381L10.9362 3.89188H0.604466C0.270656 3.89188 0 4.16417 0 4.49999C0 4.83577 0.270656 5.1081 0.604466 5.1081H10.9362L8.0996 7.96188C7.86352 8.19939 7.86352 8.58439 8.0996 8.8219C8.21759 8.94055 8.37233 9 8.52703 9C8.68172 9 8.83642 8.94055 8.95446 8.8219L12.8229 4.93C13.059 4.6925 13.059 4.30749 12.8229 4.06999Z" fill="#111111"/>
</svg>
