<svg width="19" height="18" viewBox="0 0 19 18" fill="none" xmlns="http://www.w3.org/2000/svg">
<path d="M7.95455 16.2381C7.95455 16.6589 7.60858 17 7.18182 17M7.95455 16.2381C7.95455 15.8173 7.60858 15.4762 7.18182 15.4762M7.95455 16.2381H6.40909M7.18182 17C6.75505 17 6.40909 16.6589 6.40909 16.2381M7.18182 17V16.2381C7.18182 16.4849 7.18182 16.6781 7.18182 15.4762M6.40909 16.2381C6.40909 15.8173 6.75505 15.4762 7.18182 15.4762M16.4545 16.2381C16.4545 16.6589 16.1086 17 15.6818 17M16.4545 16.2381C16.4545 15.8173 16.1086 15.4762 15.6818 15.4762M16.4545 16.2381H14.9091M15.6818 17C15.2551 17 14.9091 16.6589 14.9091 16.2381M15.6818 17V15.4762M14.9091 16.2381C14.9091 15.8173 15.2551 15.4762 15.6818 15.4762M1 1H4.09091L6.16182 11.2019C6.23248 11.5527 6.42602 11.8678 6.70856 12.092C6.9911 12.3163 7.34463 12.4354 7.70727 12.4286H15.2182C15.5808 12.4354 15.9344 12.3163 16.2169 12.092C16.4994 11.8678 16.693 11.5527 16.7636 11.2019L18 4.80952H4.86364" stroke="white" stroke-width="1.3" stroke-linecap="round" stroke-linejoin="round"/>
</svg>
